<svg xmlns="http://www.w3.org/2000/svg" width="640" height="772" viewBox="0 0 640 772"><circle cx="487.401" cy="300.000" r="22.599" fill="#1D4ED8"/><circle cx="474.658" cy="364.062" r="22.599" fill="#1D4ED8"/><circle cx="438.370" cy="418.370" r="22.599" fill="#1D4ED8"/><circle cx="384.062" cy="454.658" r="22.599" fill="#1D4ED8"/><circle cx="320.000" cy="467.401" r="22.599" fill="#1D4ED8"/><circle cx="255.938" cy="454.658" r="22.599" fill="#1D4ED8"/><circle cx="201.630" cy="418.370" r="22.599" fill="#1D4ED8"/><circle cx="165.342" cy="364.062" r="22.599" fill="#1D4ED8"/><circle cx="152.599" cy="300.000" r="22.599" fill="#1D4ED8"/><circle cx="165.342" cy="235.938" r="22.599" fill="#1D4ED8"/><circle cx="201.630" cy="181.630" r="22.599" fill="#1D4ED8"/><circle cx="255.938" cy="145.342" r="22.599" fill="#1D4ED8"/><circle cx="320.000" cy="132.599" r="22.599" fill="#1D4ED8"/><circle cx="384.062" cy="145.342" r="22.599" fill="#1D4ED8"/><circle cx="438.370" cy="181.630" r="22.599" fill="#1D4ED8"/><circle cx="474.658" cy="235.938" r="22.599" fill="#1D4ED8"/><circle cx="320.000" cy="300.000" r="167.401" fill="#1D4ED8"/><circle cx="320.000" cy="300.000" r="120.529" fill="none" stroke="#FFFFFF" stroke-width="12.053"/><path d="M274.07,304.92 L309.34,336.91 L369.22,264.73" fill="none" stroke="#FFFFFF" stroke-width="22.599" stroke-linecap="round" stroke-linejoin="round"/><g transform="translate(99.64,664.92)"><path d="M188 291V407H337Q384 407 409.5 431.0Q435 455 435 496Q435 534 410.0 559.0Q385 584 338 584H188V706H356Q426 706 479.0 679.5Q532 653 562.0 606.0Q592 559 592 498Q592 436 562.0 389.5Q532 343 478.0 317.0Q424 291 351 291ZM68 0V706H225V0ZM452 0 232 304 376 343 638 0Z" transform="translate(0.000,0) scale(0.15228,-0.15228)" fill="#F6F8FF"/><path d="M294 -11Q215 -11 153.5 21.5Q92 54 57.0 112.0Q22 170 22 243Q22 316 56.5 373.5Q91 431 150.0 464.0Q209 497 283 497Q355 497 410.0 466.0Q465 435 496.5 380.0Q528 325 528 254Q528 241 526.5 226.5Q525 212 521 193L102 192V297L456 298L390 254Q389 296 377.0 323.5Q365 351 341.5 365.5Q318 380 284 380Q248 380 221.5 363.5Q195 347 180.5 317.0Q166 287 166 244Q166 201 181.5 170.5Q197 140 225.5 123.5Q254 107 293 107Q329 107 358.0 119.5Q387 132 409 157L493 73Q457 31 406.0 10.0Q355 -11 294 -11Z" transform="translate(99.289,0) scale(0.15228,-0.15228)" fill="#F6F8FF"/><path d="M188 257V379H340Q369 379 393.0 391.0Q417 403 431.0 426.0Q445 449 445 482Q445 514 431.0 537.0Q417 560 393.0 572.0Q369 584 340 584H188V706H363Q430 706 484.0 679.0Q538 652 569.5 601.5Q601 551 601 482Q601 413 569.5 362.5Q538 312 484.0 284.5Q430 257 363 257ZM68 0V706H225V0Z" transform="translate(182.741,0) scale(0.15228,-0.15228)" fill="#F6F8FF"/><path d="M54 0V486H207V0ZM207 267 143 317Q162 402 207.0 449.0Q252 496 332 496Q367 496 393.5 485.5Q420 475 440 453L349 338Q339 349 324.0 355.0Q309 361 290 361Q252 361 229.5 337.5Q207 314 207 267Z" transform="translate(278.376,0) scale(0.15228,-0.15228)" fill="#F6F8FF"/><path d="M288 -11Q213 -11 152.5 22.5Q92 56 57.0 114.0Q22 172 22 244Q22 316 57.0 373.0Q92 430 152.0 463.5Q212 497 288 497Q364 497 424.0 464.0Q484 431 519.0 373.5Q554 316 554 244Q554 172 519.0 114.0Q484 56 424.0 22.5Q364 -11 288 -11ZM288 128Q321 128 346.0 142.5Q371 157 384.5 183.5Q398 210 398 244Q398 278 384.0 303.5Q370 329 345.5 343.5Q321 358 288 358Q256 358 231.0 343.5Q206 329 192.0 303.0Q178 277 178 243Q178 210 192.0 183.5Q206 157 231.0 142.5Q256 128 288 128Z" transform="translate(345.990,0) scale(0.15228,-0.15228)" fill="#F6F8FF"/></g></svg>