<svg xmlns="http://www.w3.org/2000/svg" width="980" height="340" viewBox="0 0 980 340"><circle cx="293.348" cy="170.000" r="16.652" fill="#1D4ED8"/><circle cx="283.959" cy="217.203" r="16.652" fill="#1D4ED8"/><circle cx="257.220" cy="257.220" r="16.652" fill="#1D4ED8"/><circle cx="217.203" cy="283.959" r="16.652" fill="#1D4ED8"/><circle cx="170.000" cy="293.348" r="16.652" fill="#1D4ED8"/><circle cx="122.797" cy="283.959" r="16.652" fill="#1D4ED8"/><circle cx="82.780" cy="257.220" r="16.652" fill="#1D4ED8"/><circle cx="56.041" cy="217.203" r="16.652" fill="#1D4ED8"/><circle cx="46.652" cy="170.000" r="16.652" fill="#1D4ED8"/><circle cx="56.041" cy="122.797" r="16.652" fill="#1D4ED8"/><circle cx="82.780" cy="82.780" r="16.652" fill="#1D4ED8"/><circle cx="122.797" cy="56.041" r="16.652" fill="#1D4ED8"/><circle cx="170.000" cy="46.652" r="16.652" fill="#1D4ED8"/><circle cx="217.203" cy="56.041" r="16.652" fill="#1D4ED8"/><circle cx="257.220" cy="82.780" r="16.652" fill="#1D4ED8"/><circle cx="283.959" cy="122.797" r="16.652" fill="#1D4ED8"/><circle cx="170.000" cy="170.000" r="123.348" fill="#1D4ED8"/><circle cx="170.000" cy="170.000" r="88.811" fill="none" stroke="#FFFFFF" stroke-width="8.881"/><path d="M136.15,173.63 L162.14,197.20 L206.26,144.01" fill="none" stroke="#FFFFFF" stroke-width="16.652" stroke-linecap="round" stroke-linejoin="round"/><g transform="translate(319.80,196.12)"><path d="M188 291V407H337Q384 407 409.5 431.0Q435 455 435 496Q435 534 410.0 559.0Q385 584 338 584H188V706H356Q426 706 479.0 679.5Q532 653 562.0 606.0Q592 559 592 498Q592 436 562.0 389.5Q532 343 478.0 317.0Q424 291 351 291ZM68 0V706H225V0ZM452 0 232 304 376 343 638 0Z" transform="translate(0.000,0) scale(0.15000,-0.15000)" fill="#1E3A8A"/><path d="M294 -11Q215 -11 153.5 21.5Q92 54 57.0 112.0Q22 170 22 243Q22 316 56.5 373.5Q91 431 150.0 464.0Q209 497 283 497Q355 497 410.0 466.0Q465 435 496.5 380.0Q528 325 528 254Q528 241 526.5 226.5Q525 212 521 193L102 192V297L456 298L390 254Q389 296 377.0 323.5Q365 351 341.5 365.5Q318 380 284 380Q248 380 221.5 363.5Q195 347 180.5 317.0Q166 287 166 244Q166 201 181.5 170.5Q197 140 225.5 123.5Q254 107 293 107Q329 107 358.0 119.5Q387 132 409 157L493 73Q457 31 406.0 10.0Q355 -11 294 -11Z" transform="translate(97.800,0) scale(0.15000,-0.15000)" fill="#1E3A8A"/><path d="M188 257V379H340Q369 379 393.0 391.0Q417 403 431.0 426.0Q445 449 445 482Q445 514 431.0 537.0Q417 560 393.0 572.0Q369 584 340 584H188V706H363Q430 706 484.0 679.0Q538 652 569.5 601.5Q601 551 601 482Q601 413 569.5 362.5Q538 312 484.0 284.5Q430 257 363 257ZM68 0V706H225V0Z" transform="translate(180.000,0) scale(0.15000,-0.15000)" fill="#1E3A8A"/><path d="M54 0V486H207V0ZM207 267 143 317Q162 402 207.0 449.0Q252 496 332 496Q367 496 393.5 485.5Q420 475 440 453L349 338Q339 349 324.0 355.0Q309 361 290 361Q252 361 229.5 337.5Q207 314 207 267Z" transform="translate(274.200,0) scale(0.15000,-0.15000)" fill="#1E3A8A"/><path d="M288 -11Q213 -11 152.5 22.5Q92 56 57.0 114.0Q22 172 22 244Q22 316 57.0 373.0Q92 430 152.0 463.5Q212 497 288 497Q364 497 424.0 464.0Q484 431 519.0 373.5Q554 316 554 244Q554 172 519.0 114.0Q484 56 424.0 22.5Q364 -11 288 -11ZM288 128Q321 128 346.0 142.5Q371 157 384.5 183.5Q398 210 398 244Q398 278 384.0 303.5Q370 329 345.5 343.5Q321 358 288 358Q256 358 231.0 343.5Q206 329 192.0 303.0Q178 277 178 243Q178 210 192.0 183.5Q206 157 231.0 142.5Q256 128 288 128Z" transform="translate(340.800,0) scale(0.15000,-0.15000)" fill="#1E3A8A"/></g><g transform="translate(330.29,256.03)"><path d="M1066 -3Q1041 -18 1018.5 -12.5Q996 -7 980 17L658 537H320V63Q320 0 257 0Q194 0 194 63V1248Q194 1311 257 1311H725Q900 1311 991.0 1220.0Q1082 1129 1082 954V894Q1082 741 1011.5 652.0Q941 563 804 543L1088 83Q1119 30 1066 -3ZM320 663H725Q848 663 902.0 717.5Q956 772 956 894V954Q956 1076 902.0 1130.5Q848 1185 725 1185H320Z" transform="translate(0.000,0) scale(0.01399,-0.01399)" fill="#5B6B86"/><path d="M609 1435Q567 1472 602 1516L765 1710Q802 1755 846 1717Q889 1682 853 1636L690 1442Q655 1397 609 1435ZM257 0Q194 0 194 63V1248Q194 1311 257 1311H996Q1059 1311 1059 1248Q1059 1185 996 1185H320V726H760Q823 726 823 663Q823 600 760 600H320V126H996Q1059 126 1059 63Q1059 0 996 0Z" transform="translate(22.479,0) scale(0.01399,-0.01399)" fill="#5B6B86"/><path d="M257 0Q194 0 194 63V1248Q194 1311 257 1311H725Q900 1311 991.0 1220.0Q1082 1129 1082 954V894Q1082 720 991.0 628.5Q900 537 725 537H320V63Q320 0 257 0ZM320 663H725Q848 663 902.0 717.5Q956 772 956 894V954Q956 1076 902.0 1130.5Q848 1185 725 1185H320Z" transform="translate(44.160,0) scale(0.01399,-0.01399)" fill="#5B6B86"/><path d="M611 0Q390 0 287.0 103.0Q184 206 184 427V1248Q184 1278 200.5 1294.5Q217 1311 247 1311Q277 1311 293.5 1294.5Q310 1278 310 1248V427Q310 315 338.5 249.0Q367 183 433.0 154.5Q499 126 611 126H851Q964 126 1029.5 154.5Q1095 183 1123.5 249.0Q1152 315 1152 427V1248Q1152 1278 1168.5 1294.5Q1185 1311 1215 1311Q1245 1311 1261.5 1294.5Q1278 1278 1278 1248V427Q1278 206 1175.5 103.0Q1073 0 851 0Z" transform="translate(65.926,0) scale(0.01399,-0.01399)" fill="#5B6B86"/><path d="M583 -1Q553 -1 536.5 15.5Q520 32 520 62V1185H107Q77 1185 60.5 1201.5Q44 1218 44 1248Q44 1278 60.5 1294.5Q77 1311 107 1311H1059Q1089 1311 1105.5 1294.5Q1122 1278 1122 1248Q1122 1218 1105.5 1201.5Q1089 1185 1059 1185H646V62Q646 33 629.5 16.0Q613 -1 583 -1Z" transform="translate(91.972,0) scale(0.01399,-0.01399)" fill="#5B6B86"/><path d="M105 6Q47 31 70 89L559 1262Q580 1311 630 1311H635Q684 1310 703 1262L1195 89Q1220 31 1161 6Q1103 -17 1079 40L955 337H310L187 40Q164 -18 105 6ZM361 463H902L630 1112Z" transform="translate(113.877,0) scale(0.01399,-0.01399)" fill="#5B6B86"/><path d="M583 -1Q553 -1 536.5 15.5Q520 32 520 62V1185H107Q77 1185 60.5 1201.5Q44 1218 44 1248Q44 1278 60.5 1294.5Q77 1311 107 1311H1059Q1089 1311 1105.5 1294.5Q1122 1278 1122 1248Q1122 1218 1105.5 1201.5Q1089 1185 1059 1185H646V62Q646 33 629.5 16.0Q613 -1 583 -1Z" transform="translate(137.139,0) scale(0.01399,-0.01399)" fill="#5B6B86"/><path d="M257 0Q227 0 210.5 16.5Q194 33 194 63V1248Q194 1279 210.5 1295.0Q227 1311 257 1311Q288 1311 304.0 1295.0Q320 1279 320 1248V63Q320 33 304.0 16.5Q288 0 257 0Z" transform="translate(159.045,0) scale(0.01399,-0.01399)" fill="#5B6B86"/><path d="M587 0Q366 0 263.0 103.0Q160 206 160 427V885Q160 1108 263.5 1210.5Q367 1313 586 1311H827Q1049 1311 1151.5 1208.5Q1254 1106 1254 884V427Q1254 206 1151.5 103.0Q1049 0 827 0ZM587 126H827Q940 126 1005.5 154.5Q1071 183 1099.5 249.0Q1128 315 1128 427V884Q1128 996 1099.5 1062.0Q1071 1128 1005.5 1156.5Q940 1185 827 1185H586Q474 1186 408.5 1158.0Q343 1130 314.5 1064.0Q286 998 286 885V427Q286 315 314.5 249.0Q343 183 409.0 154.5Q475 126 587 126Z" transform="translate(171.830,0) scale(0.01399,-0.01399)" fill="#5B6B86"/><path d="M257 0Q194 0 194 63V1248Q194 1311 257 1311Q290 1311 321 1274L1154 203H1124V1248Q1124 1311 1187 1311Q1250 1311 1250 1248V63Q1250 0 1187 0Q1153 0 1123 37L290 1108H320V63Q320 0 257 0Z" transform="translate(197.204,0) scale(0.01399,-0.01399)" fill="#5B6B86"/><path d="M257 0Q194 0 194 63V1248Q194 1311 257 1311H725Q900 1311 991.0 1220.0Q1082 1129 1082 954V894Q1082 720 991.0 628.5Q900 537 725 537H320V63Q320 0 257 0ZM320 663H725Q848 663 902.0 717.5Q956 772 956 894V954Q956 1076 902.0 1130.5Q848 1185 725 1185H320Z" transform="translate(236.203,0) scale(0.01399,-0.01399)" fill="#5B6B86"/><path d="M1066 -3Q1041 -18 1018.5 -12.5Q996 -7 980 17L658 537H320V63Q320 0 257 0Q194 0 194 63V1248Q194 1311 257 1311H725Q900 1311 991.0 1220.0Q1082 1129 1082 954V894Q1082 741 1011.5 652.0Q941 563 804 543L1088 83Q1119 30 1066 -3ZM320 663H725Q848 663 902.0 717.5Q956 772 956 894V954Q956 1076 902.0 1130.5Q848 1185 725 1185H320Z" transform="translate(257.969,0) scale(0.01399,-0.01399)" fill="#5B6B86"/><path d="M587 0Q366 0 263.0 103.0Q160 206 160 427V885Q160 1108 263.5 1210.5Q367 1313 586 1311H827Q1049 1311 1151.5 1208.5Q1254 1106 1254 884V427Q1254 206 1151.5 103.0Q1049 0 827 0ZM587 126H827Q940 126 1005.5 154.5Q1071 183 1099.5 249.0Q1128 315 1128 427V884Q1128 996 1099.5 1062.0Q1071 1128 1005.5 1156.5Q940 1185 827 1185H586Q474 1186 408.5 1158.0Q343 1130 314.5 1064.0Q286 998 286 885V427Q286 315 314.5 249.0Q343 183 409.0 154.5Q475 126 587 126Z" transform="translate(280.448,0) scale(0.01399,-0.01399)" fill="#5B6B86"/><path d="M257 0Q194 0 194 63V1248Q194 1311 257 1311H983Q1013 1311 1029.5 1294.5Q1046 1278 1046 1248Q1046 1185 983 1185H320V726H758Q821 726 821 663Q821 600 758 600H320V63Q320 0 257 0Z" transform="translate(305.822,0) scale(0.01399,-0.01399)" fill="#5B6B86"/><path d="M257 0Q194 0 194 63V1248Q194 1311 257 1311H996Q1059 1311 1059 1248Q1059 1185 996 1185H320V726H760Q823 726 823 663Q823 600 760 600H320V126H996Q1059 126 1059 63Q1059 0 996 0Z" transform="translate(326.049,0) scale(0.01399,-0.01399)" fill="#5B6B86"/><path d="M528 1Q352 1 262.5 77.0Q173 153 161 315Q159 346 176.0 363.0Q193 380 223 380Q253 380 268.5 364.0Q284 348 288 318Q295 211 349.0 169.0Q403 127 528 127H816Q954 127 1006.5 179.5Q1059 232 1059 368Q1059 506 1005.5 558.5Q952 611 816 611H551Q370 611 285.0 696.5Q200 782 200 962Q200 1142 284.5 1226.5Q369 1311 549 1311H815Q980 1311 1064.5 1239.5Q1149 1168 1161 1016Q1164 986 1147.0 968.5Q1130 951 1099 951Q1070 951 1054.0 967.5Q1038 984 1035 1013Q1027 1110 977.0 1147.5Q927 1185 815 1185H549Q421 1185 373.5 1136.5Q326 1088 326 962Q326 836 374.5 786.5Q423 737 551 737H816Q1005 737 1095.0 647.5Q1185 558 1185 368Q1185 179 1095.5 90.0Q1006 1 816 1Z" transform="translate(347.730,0) scale(0.01399,-0.01399)" fill="#5B6B86"/><path d="M528 1Q352 1 262.5 77.0Q173 153 161 315Q159 346 176.0 363.0Q193 380 223 380Q253 380 268.5 364.0Q284 348 288 318Q295 211 349.0 169.0Q403 127 528 127H816Q954 127 1006.5 179.5Q1059 232 1059 368Q1059 506 1005.5 558.5Q952 611 816 611H551Q370 611 285.0 696.5Q200 782 200 962Q200 1142 284.5 1226.5Q369 1311 549 1311H815Q980 1311 1064.5 1239.5Q1149 1168 1161 1016Q1164 986 1147.0 968.5Q1130 951 1099 951Q1070 951 1054.0 967.5Q1038 984 1035 1013Q1027 1110 977.0 1147.5Q927 1185 815 1185H549Q421 1185 373.5 1136.5Q326 1088 326 962Q326 836 374.5 786.5Q423 737 551 737H816Q1005 737 1095.0 647.5Q1185 558 1185 368Q1185 179 1095.5 90.0Q1006 1 816 1Z" transform="translate(372.140,0) scale(0.01399,-0.01399)" fill="#5B6B86"/><path d="M257 0Q227 0 210.5 16.5Q194 33 194 63V1248Q194 1279 210.5 1295.0Q227 1311 257 1311Q288 1311 304.0 1295.0Q320 1279 320 1248V63Q320 33 304.0 16.5Q288 0 257 0Z" transform="translate(396.549,0) scale(0.01399,-0.01399)" fill="#5B6B86"/><path d="M587 0Q366 0 263.0 103.0Q160 206 160 427V885Q160 1108 263.5 1210.5Q367 1313 586 1311H827Q1049 1311 1151.5 1208.5Q1254 1106 1254 884V427Q1254 206 1151.5 103.0Q1049 0 827 0ZM587 126H827Q940 126 1005.5 154.5Q1071 183 1099.5 249.0Q1128 315 1128 427V884Q1128 996 1099.5 1062.0Q1071 1128 1005.5 1156.5Q940 1185 827 1185H586Q474 1186 408.5 1158.0Q343 1130 314.5 1064.0Q286 998 286 885V427Q286 315 314.5 249.0Q343 183 409.0 154.5Q475 126 587 126Z" transform="translate(409.334,0) scale(0.01399,-0.01399)" fill="#5B6B86"/><path d="M257 0Q194 0 194 63V1248Q194 1311 257 1311Q290 1311 321 1274L1154 203H1124V1248Q1124 1311 1187 1311Q1250 1311 1250 1248V63Q1250 0 1187 0Q1153 0 1123 37L290 1108H320V63Q320 0 257 0Z" transform="translate(434.708,0) scale(0.01399,-0.01399)" fill="#5B6B86"/><path d="M257 0Q194 0 194 63V1248Q194 1311 257 1311Q290 1311 321 1274L1154 203H1124V1248Q1124 1311 1187 1311Q1250 1311 1250 1248V63Q1250 0 1187 0Q1153 0 1123 37L290 1108H320V63Q320 0 257 0Z" transform="translate(460.503,0) scale(0.01399,-0.01399)" fill="#5B6B86"/><path d="M257 0Q194 0 194 63V1248Q194 1311 257 1311H996Q1059 1311 1059 1248Q1059 1185 996 1185H320V726H760Q823 726 823 663Q823 600 760 600H320V126H996Q1059 126 1059 63Q1059 0 996 0Z" transform="translate(486.297,0) scale(0.01399,-0.01399)" fill="#5B6B86"/><path d="M257 0Q194 0 194 63V1248Q194 1311 257 1311Q320 1311 320 1248V126H910Q973 126 973 63Q973 0 910 0Z" transform="translate(507.978,0) scale(0.01399,-0.01399)" fill="#5B6B86"/><path d="M257 0Q194 0 194 63V1248Q194 1311 257 1311Q320 1311 320 1248V126H910Q973 126 973 63Q973 0 910 0Z" transform="translate(527.939,0) scale(0.01399,-0.01399)" fill="#5B6B86"/><path d="M257 0Q194 0 194 63V1248Q194 1311 257 1311H996Q1059 1311 1059 1248Q1059 1185 996 1185H320V726H760Q823 726 823 663Q823 600 760 600H320V126H996Q1059 126 1059 63Q1059 0 996 0Z" transform="translate(547.900,0) scale(0.01399,-0.01399)" fill="#5B6B86"/></g></svg>