<svg xmlns="http://www.w3.org/2000/svg" width="512" height="512" viewBox="0 0 512 512"><circle cx="437.498" cy="256.000" r="24.502" fill="#1D4ED8"/><circle cx="423.682" cy="325.456" r="24.502" fill="#1D4ED8"/><circle cx="384.338" cy="384.338" r="24.502" fill="#1D4ED8"/><circle cx="325.456" cy="423.682" r="24.502" fill="#1D4ED8"/><circle cx="256.000" cy="437.498" r="24.502" fill="#1D4ED8"/><circle cx="186.544" cy="423.682" r="24.502" fill="#1D4ED8"/><circle cx="127.662" cy="384.338" r="24.502" fill="#1D4ED8"/><circle cx="88.318" cy="325.456" r="24.502" fill="#1D4ED8"/><circle cx="74.502" cy="256.000" r="24.502" fill="#1D4ED8"/><circle cx="88.318" cy="186.544" r="24.502" fill="#1D4ED8"/><circle cx="127.662" cy="127.662" r="24.502" fill="#1D4ED8"/><circle cx="186.544" cy="88.318" r="24.502" fill="#1D4ED8"/><circle cx="256.000" cy="74.502" r="24.502" fill="#1D4ED8"/><circle cx="325.456" cy="88.318" r="24.502" fill="#1D4ED8"/><circle cx="384.338" cy="127.662" r="24.502" fill="#1D4ED8"/><circle cx="423.682" cy="186.544" r="24.502" fill="#1D4ED8"/><circle cx="256.000" cy="256.000" r="181.498" fill="#1D4ED8"/><circle cx="256.000" cy="256.000" r="130.678" fill="none" stroke="#FFFFFF" stroke-width="13.068"/><path d="M206.20,261.34 L244.44,296.02 L309.36,217.76" fill="none" stroke="#FFFFFF" stroke-width="24.502" stroke-linecap="round" stroke-linejoin="round"/></svg>